<?xml version="1.0" encoding="UTF-8"?>
<svg xmlns="http://www.w3.org/2000/svg" width="1100" height="780" viewBox="0 0 1100 780">
  <rect width="1100" height="780" fill="#ffffff"/>
  <text x="550" y="36" text-anchor="middle" font-family="Helvetica,Arial" font-size="20" font-weight="bold" fill="#111">AI-Driven API Test Generator — 23127152</text>
  <text x="550" y="58" text-anchor="middle" font-family="Helvetica,Arial" font-size="12" fill="#555">Self-designed architecture (G9.5) · matches diagram.mmd</text>

  <!-- boxes helper: rounded rects -->
  <defs>
    <marker id="arrow" markerWidth="8" markerHeight="8" refX="6" refY="3" orient="auto">
      <path d="M0,0 L6,3 L0,6 Z" fill="#333"/>
    </marker>
  </defs>

  <!-- A Spec -->
  <rect x="430" y="80" width="240" height="44" rx="8" fill="#E8F1FF" stroke="#2F6FED"/>
  <text x="550" y="107" text-anchor="middle" font-family="Helvetica" font-size="13">api_specification.md</text>

  <!-- B Parser -->
  <rect x="430" y="160" width="240" height="44" rx="8" fill="#FFF4E5" stroke="#C77800"/>
  <text x="550" y="187" text-anchor="middle" font-family="Helvetica" font-size="13">Spec Parser</text>
  <line x1="550" y1="124" x2="550" y2="160" stroke="#333" marker-end="url(#arrow)"/>

  <!-- C D E F -->
  <rect x="40" y="250" width="200" height="50" rx="8" fill="#EAF7EA" stroke="#2F8F46"/>
  <text x="140" y="280" text-anchor="middle" font-family="Helvetica" font-size="12">Domain Partition Gen.</text>

  <rect x="280" y="250" width="200" height="50" rx="8" fill="#EAF7EA" stroke="#2F8F46"/>
  <text x="380" y="280" text-anchor="middle" font-family="Helvetica" font-size="12">State Transition Analyzer</text>

  <rect x="520" y="250" width="200" height="50" rx="8" fill="#FDECEC" stroke="#C23B3B"/>
  <text x="620" y="280" text-anchor="middle" font-family="Helvetica" font-size="12">Security Test Generator</text>

  <rect x="760" y="250" width="280" height="50" rx="8" fill="#F3EEFF" stroke="#6B4FBB"/>
  <text x="900" y="280" text-anchor="middle" font-family="Helvetica" font-size="12">Schema Validator Generator</text>

  <line x1="470" y1="204" x2="140" y2="250" stroke="#333" marker-end="url(#arrow)"/>
  <line x1="510" y1="204" x2="380" y2="250" stroke="#333" marker-end="url(#arrow)"/>
  <line x1="560" y1="204" x2="620" y2="250" stroke="#333" marker-end="url(#arrow)"/>
  <line x1="600" y1="204" x2="900" y2="250" stroke="#333" marker-end="url(#arrow)"/>

  <!-- G Aggregator -->
  <rect x="400" y="350" width="300" height="48" rx="8" fill="#FFF4E5" stroke="#C77800"/>
  <text x="550" y="379" text-anchor="middle" font-family="Helvetica" font-size="13">Test Case Aggregator</text>
  <line x1="140" y1="300" x2="480" y2="350" stroke="#333" marker-end="url(#arrow)"/>
  <line x1="380" y1="300" x2="520" y2="350" stroke="#333" marker-end="url(#arrow)"/>
  <line x1="620" y1="300" x2="580" y2="350" stroke="#333" marker-end="url(#arrow)"/>
  <line x1="900" y1="300" x2="620" y2="350" stroke="#333" marker-end="url(#arrow)"/>

  <!-- H Human Audit diamond-ish -->
  <rect x="400" y="440" width="300" height="56" rx="28" fill="#FFE8A3" stroke="#A67C00" stroke-width="2"/>
  <text x="550" y="465" text-anchor="middle" font-family="Helvetica" font-size="14" font-weight="bold">Human Audit Gate</text>
  <text x="550" y="484" text-anchor="middle" font-family="Helvetica" font-size="11">VALID / INVALID / INCOMPLETE</text>
  <line x1="550" y1="398" x2="550" y2="440" stroke="#333" marker-end="url(#arrow)"/>

  <!-- I J K -->
  <rect x="40" y="560" width="220" height="48" rx="8" fill="#EAF7EA" stroke="#2F8F46"/>
  <text x="150" y="589" text-anchor="middle" font-family="Helvetica" font-size="12">Final Test Suite (VALID)</text>

  <rect x="400" y="560" width="300" height="48" rx="8" fill="#FDECEC" stroke="#C23B3B"/>
  <text x="550" y="589" text-anchor="middle" font-family="Helvetica" font-size="12">Correct &amp; Re-audit (INVALID)</text>

  <rect x="780" y="560" width="280" height="48" rx="8" fill="#E8F1FF" stroke="#2F6FED"/>
  <text x="920" y="589" text-anchor="middle" font-family="Helvetica" font-size="12">Manual Extension ≥ 5 TC</text>

  <line x1="430" y1="496" x2="150" y2="560" stroke="#333" marker-end="url(#arrow)"/>
  <text x="260" y="530" font-family="Helvetica" font-size="11" fill="#2F8F46">VALID</text>
  <line x1="550" y1="496" x2="550" y2="560" stroke="#333" marker-end="url(#arrow)"/>
  <text x="560" y="530" font-family="Helvetica" font-size="11" fill="#C23B3B">INVALID</text>
  <line x1="670" y1="496" x2="920" y2="560" stroke="#333" marker-end="url(#arrow)"/>
  <text x="780" y="530" font-family="Helvetica" font-size="11" fill="#2F6FED">INCOMPLETE</text>

  <!-- feedback + merge -->
  <path d="M550 608 C550 640 700 640 700 496" fill="none" stroke="#C23B3B" stroke-dasharray="4 3" marker-end="url(#arrow)"/>
  <line x1="920" y1="608" x2="260" y2="608" stroke="#2F6FED" stroke-dasharray="4 3"/>
  <line x1="260" y1="608" x2="260" y2="608" stroke="#2F6FED"/>
  <line x1="150" y1="608" x2="150" y2="650" stroke="#333" marker-end="url(#arrow)"/>

  <!-- L M N -->
  <rect x="40" y="660" width="220" height="44" rx="8" fill="#E8F1FF" stroke="#2F6FED"/>
  <text x="150" y="687" text-anchor="middle" font-family="Helvetica" font-size="12">Postman Collection Export</text>

  <rect x="300" y="660" width="200" height="44" rx="8" fill="#E8F1FF" stroke="#2F6FED"/>
  <text x="400" y="687" text-anchor="middle" font-family="Helvetica" font-size="12">Newman Runner</text>

  <rect x="540" y="660" width="320" height="44" rx="8" fill="#FFF4E5" stroke="#C77800"/>
  <text x="700" y="687" text-anchor="middle" font-family="Helvetica" font-size="12">HTML Report + Bug Reports</text>

  <line x1="150" y1="704" x2="300" y2="682" stroke="#333" marker-end="url(#arrow)"/>
  <line x1="500" y1="682" x2="540" y2="682" stroke="#333" marker-end="url(#arrow)"/>
  <line x1="260" y1="608" x2="400" y2="660" stroke="#333" marker-end="url(#arrow)"/>
</svg>
